<svg version="1.1" xmlns="http://www.w3.org/2000/svg" xmlns:xlink="http://www.w3.org/1999/xlink" x="0px" y="0px"

	 viewBox="0 0 1920 1080" style="enable-background:new 0 0 1920 1080;" xml:space="preserve">

<g id="sun">

	<path fill="#{{kekeke_0}}" d="M1256.21,209.39H706.79c-7.74,12.77-14.6,26.13-20.53,39.98l589.62-2.03

		C1270.15,234.21,1263.57,221.54,1256.21,209.39z"/>

	<path fill="#{{kekeke_1}}" d="M1281.75,261.77l-599.94-1.36c-4.81,12.51-8.84,25.4-12.08,38.6h623.58

		C1290.18,286.29,1286.33,273.85,1281.75,261.77z"/>



	<path fill="#{{kekeke_3}}" d="M665.4,319.69c-2.31,13.08-3.84,26.42-4.5,40h641.21c-0.69-14.03-2.27-27.83-4.7-41.33L665.4,319.69z"/>

	<path fill="#{{kekeke_4}}" d="M981.5,696.5c76.86,0,147.4-27.03,202.66-72.08H778.85C834.1,669.47,904.64,696.5,981.5,696.5z"/>

	<path fill="#{{kekeke_5}}" d="M708.55,544.45c8.91,14.38,18.93,27.99,29.94,40.74l482.02,4.55c12.59-14.04,23.96-29.19,33.95-45.29H708.55z"

		/>

	<path fill="#{{kekeke_6}}" d="M671.69,459.65c4.65,17.16,10.69,33.75,17.98,49.64h583.67c7.3-15.89,13.33-32.48,17.98-49.64H671.69z"/>

	<path fill="#{{kekeke_7}}" d="M660.77,388.64c0.56,13.8,2,27.38,4.24,40.68h632.97c2.17-12.86,3.58-25.97,4.17-39.3H660.89h641.26

		c0.02-0.46,0.03-0.92,0.05-1.38H660.77z"/>

	<path fill="#{{kekeke_2}}" stroke="#F9FF65" stroke-miterlimit="10" d="M981.5,54.5c-112.48,0-211.43,57.87-268.75,145.44h537.51C1192.93,112.37,1093.98,54.5,981.5,54.5z"/>

</g>

 <text x="0" y="50" >name : {{name}}</text>
 <text x="0" y="250" >population : {{population}}</text>
 <text x="0" y="100" >place_status : {{place_status}}</text>
 <text x="0" y="150" >race : {{race}}</text>
 <text x="0" y="200" >danger : {{danger}}</text>
</svg>
