<svg width="371" height="372" viewBox="0 0 371 372" fill="none" xmlns="http://www.w3.org/2000/svg">
    <path d="M148.694 10.8056H133.972V25.5278H148.694V10.8056Z" fill="#FC63E3"/>
    <path d="M166.361 10.8056H151.639V25.5278H166.361V10.8056Z" fill="#FC63E3"/>
    <path d="M184.028 10.8056H169.306V25.5278H184.028V10.8056Z" fill="#FC63E3"/>
    <path d="M201.694 10.8056H186.972V25.5278H201.694V10.8056Z" fill="#FC63E3"/>
    <path d="M219.361 10.8056H204.639V25.5278H219.361V10.8056Z" fill="#FC63E3"/>
    <path d="M237.028 10.8056H222.306V25.5278H237.028V10.8056Z" fill="#FC63E3"/>
    <path d="M113.361 28.4722H98.6389V43.1944H113.361V28.4722Z" fill="#FC63E3"/>
    <path d="M131.028 28.4722H116.306V43.1944H131.028V28.4722Z" fill="#FC63E3"/>
    <path d="M148.694 28.4722H133.972V43.1944H148.694V28.4722Z" fill="#FC63E3"/>
    <path d="M166.361 28.4722H151.639V43.1944H166.361V28.4722Z" fill="#FC63E3"/>
    <path d="M184.028 28.4722H169.306V43.1944H184.028V28.4722Z" fill="#FC63E3"/>
    <path d="M201.694 28.4722H186.972V43.1944H201.694V28.4722Z" fill="#FC63E3"/>
    <path d="M219.361 28.4722H204.639V43.1944H219.361V28.4722Z" fill="#FC63E3"/>
    <path d="M237.028 28.4722H222.306V43.1944H237.028V28.4722Z" fill="#FC63E3"/>
    <path d="M254.694 28.4722H239.972V43.1944H254.694V28.4722Z" fill="#FC63E3"/>
    <path d="M272.361 28.4722H257.639V43.1944H272.361V28.4722Z" fill="#FC63E3"/>
    <path d="M78.0278 46.1389H63.3056V60.8611H78.0278V46.1389Z" fill="#FC63E3"/>
    <path d="M95.6945 46.1389H80.9722V60.8611H95.6945V46.1389Z" fill="#FC63E3"/>
    <path d="M113.361 46.1389H98.6389V60.8611H113.361V46.1389Z" fill="#FC63E3"/>
    <path d="M131.028 46.1389H116.306V60.8611H131.028V46.1389Z" fill="#FC63E3"/>
    <path d="M148.694 46.1389H133.972V60.8611H148.694V46.1389Z" fill="#FC63E3"/>
    <path d="M166.361 46.1389H151.639V60.8611H166.361V46.1389Z" fill="#FC63E3"/>
    <path d="M184.028 46.1389H169.306V60.8611H184.028V46.1389Z" fill="#FC63E3"/>
    <path d="M201.694 46.1389H186.972V60.8611H201.694V46.1389Z" fill="#FC63E3"/>
    <path d="M219.361 46.1389H204.639V60.8611H219.361V46.1389Z" fill="#FC63E3"/>
    <path d="M237.028 46.1389H222.306V60.8611H237.028V46.1389Z" fill="#FC63E3"/>
    <path d="M254.694 46.1389H239.972V60.8611H254.694V46.1389Z" fill="#FC63E3"/>
    <path d="M272.361 46.1389H257.639V60.8611H272.361V46.1389Z" fill="#FC63E3"/>
    <path d="M290.028 46.1389H275.306V60.8611H290.028V46.1389Z" fill="#FC63E3"/>
    <path d="M307.694 46.1389H292.972V60.8611H307.694V46.1389Z" fill="#FC63E3"/>
    <path d="M60.3611 63.8056H45.6389V78.5278H60.3611V63.8056Z" fill="#FC63E3"/>
    <path d="M78.0278 63.8056H63.3056V78.5278H78.0278V63.8056Z" fill="#FC63E3"/>
    <path d="M95.6945 63.8056H80.9722V78.5278H95.6945V63.8056Z" fill="#FC63E3"/>
    <path d="M113.361 63.8056H98.6389V78.5278H113.361V63.8056Z" fill="#FC63E3"/>
    <path d="M131.028 63.8056H116.306V78.5278H131.028V63.8056Z" fill="#FC63E3"/>
    <path d="M148.694 63.8056H133.972V78.5278H148.694V63.8056Z" fill="#FC63E3"/>
    <path d="M166.361 63.8056H151.639V78.5278H166.361V63.8056Z" fill="#FC63E3"/>
    <path d="M184.028 63.8056H169.306V78.5278H184.028V63.8056Z" fill="#FC63E3"/>
    <path d="M201.694 63.8056H186.972V78.5278H201.694V63.8056Z" fill="#FC63E3"/>
    <path d="M219.361 63.8056H204.639V78.5278H219.361V63.8056Z" fill="#FC63E3"/>
    <path d="M237.028 63.8056H222.306V78.5278H237.028V63.8056Z" fill="#FC63E3"/>
    <path d="M254.694 63.8056H239.972V78.5278H254.694V63.8056Z" fill="#FC63E3"/>
    <path d="M272.361 63.8056H257.639V78.5278H272.361V63.8056Z" fill="#FC63E3"/>
    <path d="M290.028 63.8056H275.306V78.5278H290.028V63.8056Z" fill="#FC63E3"/>
    <path d="M307.694 63.8056H292.972V78.5278H307.694V63.8056Z" fill="#FC63E3"/>
    <path d="M325.361 63.8056H310.639V78.5278H325.361V63.8056Z" fill="#FC63E3"/>
    <path d="M60.3611 81.4722H45.6389V96.1944H60.3611V81.4722Z" fill="#FC63E3"/>
    <path d="M78.0278 81.4722H63.3056V96.1944H78.0278V81.4722Z" fill="#FC63E3"/>
    <path d="M95.6945 81.4722H80.9722V96.1944H95.6945V81.4722Z" fill="#FC63E3"/>
    <path d="M113.361 81.4722H98.6389V96.1944H113.361V81.4722Z" fill="#FC63E3"/>
    <path d="M131.028 81.4722H116.306V96.1944H131.028V81.4722Z" fill="#FC63E3"/>
    <path d="M148.694 81.4722H133.972V96.1944H148.694V81.4722Z" fill="#FC63E3"/>
    <path d="M166.361 81.4722H151.639V96.1944H166.361V81.4722Z" fill="#FC63E3"/>
    <path d="M184.028 81.4722H169.306V96.1944H184.028V81.4722Z" fill="#FC63E3"/>
    <path d="M201.694 81.4722H186.972V96.1944H201.694V81.4722Z" fill="#FC63E3"/>
    <path d="M219.361 81.4722H204.639V96.1944H219.361V81.4722Z" fill="#FC63E3"/>
    <path d="M237.028 81.4722H222.306V96.1944H237.028V81.4722Z" fill="#FC63E3"/>
    <path d="M254.694 81.4722H239.972V96.1944H254.694V81.4722Z" fill="#FC63E3"/>
    <path d="M272.361 81.4722H257.639V96.1944H272.361V81.4722Z" fill="#FC63E3"/>
    <path d="M290.028 81.4722H275.306V96.1944H290.028V81.4722Z" fill="#FC63E3"/>
    <path d="M307.694 81.4722H292.972V96.1944H307.694V81.4722Z" fill="#FC63E3"/>
    <path d="M325.361 81.4722H310.639V96.1944H325.361V81.4722Z" fill="#FC63E3"/>
    <path d="M42.6945 99.1389H27.9722V113.861H42.6945V99.1389Z" fill="#FC63E3"/>
    <path d="M60.3611 99.1389H45.6389V113.861H60.3611V99.1389Z" fill="#FC63E3"/>
    <path d="M78.0278 99.1389H63.3056V113.861H78.0278V99.1389Z" fill="#FC63E3"/>
    <path d="M95.6945 99.1389H80.9722V113.861H95.6945V99.1389Z" fill="#FC63E3"/>
    <path d="M113.361 99.1389H98.6389V113.861H113.361V99.1389Z" fill="#FC63E3"/>
    <path d="M131.028 99.1389H116.306V113.861H131.028V99.1389Z" fill="#FC63E3"/>
    <path d="M148.694 99.1389H133.972V113.861H148.694V99.1389Z" fill="#FC63E3"/>
    <path d="M166.361 99.1389H151.639V113.861H166.361V99.1389Z" fill="#FC63E3"/>
    <path d="M184.028 99.1389H169.306V113.861H184.028V99.1389Z" fill="#FC63E3"/>
    <path d="M201.694 99.1389H186.972V113.861H201.694V99.1389Z" fill="#FC63E3"/>
    <path d="M219.361 99.1389H204.639V113.861H219.361V99.1389Z" fill="#FC63E3"/>
    <path d="M237.028 99.1389H222.306V113.861H237.028V99.1389Z" fill="#FC63E3"/>
    <path d="M254.694 99.1389H239.972V113.861H254.694V99.1389Z" fill="#FC63E3"/>
    <path d="M272.361 99.1389H257.639V113.861H272.361V99.1389Z" fill="#FC63E3"/>
    <path d="M290.028 99.1389H275.306V113.861H290.028V99.1389Z" fill="#FC63E3"/>
    <path d="M307.694 99.1389H292.972V113.861H307.694V99.1389Z" fill="#FC63E3"/>
    <path d="M325.361 99.1389H310.639V113.861H325.361V99.1389Z" fill="#FC63E3"/>
    <path d="M343.028 99.1389H328.306V113.861H343.028V99.1389Z" fill="#FC63E3"/>
    <path d="M42.6945 116.806H27.9722V131.528H42.6945V116.806Z" fill="#FC63E3"/>
    <path d="M60.3611 116.806H45.6389V131.528H60.3611V116.806Z" fill="#FC63E3"/>
    <path d="M78.0278 116.806H63.3056V131.528H78.0278V116.806Z" fill="#FC63E3"/>
    <path d="M95.6945 116.806H80.9722V131.528H95.6945V116.806Z" fill="#FC63E3"/>
    <path d="M113.361 116.806H98.6389V131.528H113.361V116.806Z" fill="#FC63E3"/>
    <path d="M131.028 116.806H116.306V131.528H131.028V116.806Z" fill="#FC63E3"/>
    <path d="M148.694 116.806H133.972V131.528H148.694V116.806Z" fill="#FC63E3"/>
    <path d="M166.361 116.806H151.639V131.528H166.361V116.806Z" fill="#FC63E3"/>
    <path d="M184.028 116.806H169.306V131.528H184.028V116.806Z" fill="#FC63E3"/>
    <path d="M201.694 116.806H186.972V131.528H201.694V116.806Z" fill="#FC63E3"/>
    <path d="M219.361 116.806H204.639V131.528H219.361V116.806Z" fill="#FC63E3"/>
    <path d="M237.028 116.806H222.306V131.528H237.028V116.806Z" fill="#FC63E3"/>
    <path d="M254.694 116.806H239.972V131.528H254.694V116.806Z" fill="#FC63E3"/>
    <path d="M272.361 116.806H257.639V131.528H272.361V116.806Z" fill="#FC63E3"/>
    <path d="M290.028 116.806H275.306V131.528H290.028V116.806Z" fill="#FC63E3"/>
    <path d="M307.694 116.806H292.972V131.528H307.694V116.806Z" fill="#FC63E3"/>
    <path d="M325.361 116.806H310.639V131.528H325.361V116.806Z" fill="#FC63E3"/>
    <path d="M343.028 116.806H328.306V131.528H343.028V116.806Z" fill="#FC63E3"/>
    <path d="M25.0278 134.472H10.3056V149.194H25.0278V134.472Z" fill="#FC63E3"/>
    <path d="M42.6945 134.472H27.9722V149.194H42.6945V134.472Z" fill="#FC63E3"/>
    <path d="M60.3611 134.472H45.6389V149.194H60.3611V134.472Z" fill="#FC63E3"/>
    <path d="M78.0278 134.472H63.3056V149.194H78.0278V134.472Z" fill="#FC63E3"/>
    <path d="M95.6945 134.472H80.9722V149.194H95.6945V134.472Z" fill="#FC63E3"/>
    <path d="M113.361 134.472H98.6389V149.194H113.361V134.472Z" fill="#FC63E3"/>
    <path d="M131.028 134.472H116.306V149.194H131.028V134.472Z" fill="#FC63E3"/>
    <path d="M148.694 134.472H133.972V149.194H148.694V134.472Z" fill="#FC63E3"/>
    <path d="M166.361 134.472H151.639V149.194H166.361V134.472Z" fill="#FC63E3"/>
    <path d="M184.028 134.472H169.306V149.194H184.028V134.472Z" fill="#FC63E3"/>
    <path d="M201.694 134.472H186.972V149.194H201.694V134.472Z" fill="#FC63E3"/>
    <path d="M219.361 134.472H204.639V149.194H219.361V134.472Z" fill="#FC63E3"/>
    <path d="M237.028 134.472H222.306V149.194H237.028V134.472Z" fill="#FC63E3"/>
    <path d="M254.694 134.472H239.972V149.194H254.694V134.472Z" fill="#FC63E3"/>
    <path d="M272.361 134.472H257.639V149.194H272.361V134.472Z" fill="#FC63E3"/>
    <path d="M290.028 134.472H275.306V149.194H290.028V134.472Z" fill="#FC63E3"/>
    <path d="M307.694 134.472H292.972V149.194H307.694V134.472Z" fill="#FC63E3"/>
    <path d="M325.361 134.472H310.639V149.194H325.361V134.472Z" fill="#FC63E3"/>
    <path d="M343.028 134.472H328.306V149.194H343.028V134.472Z" fill="#FC63E3"/>
    <path d="M360.694 134.472H345.972V149.194H360.694V134.472Z" fill="#FC63E3"/>
    <path d="M25.0278 152.139H10.3056V166.861H25.0278V152.139Z" fill="#FC63E3"/>
    <path d="M42.6945 152.139H27.9722V166.861H42.6945V152.139Z" fill="#FC63E3"/>
    <path d="M60.3611 152.139H45.6389V166.861H60.3611V152.139Z" fill="#FC63E3"/>
    <path d="M78.0278 152.139H63.3056V166.861H78.0278V152.139Z" fill="#FC63E3"/>
    <path d="M95.6945 152.139H80.9722V166.861H95.6945V152.139Z" fill="#FC63E3"/>
    <path d="M113.361 152.139H98.6389V166.861H113.361V152.139Z" fill="#FC63E3"/>
    <path d="M131.028 152.139H116.306V166.861H131.028V152.139Z" fill="#FC63E3"/>
    <path d="M148.694 152.139H133.972V166.861H148.694V152.139Z" fill="#FC63E3"/>
    <path d="M166.361 152.139H151.639V166.861H166.361V152.139Z" fill="#FC63E3"/>
    <path d="M184.028 152.139H169.306V166.861H184.028V152.139Z" fill="#FC63E3"/>
    <path d="M201.694 152.139H186.972V166.861H201.694V152.139Z" fill="#FC63E3"/>
    <path d="M219.361 152.139H204.639V166.861H219.361V152.139Z" fill="#FC63E3"/>
    <path d="M237.028 152.139H222.306V166.861H237.028V152.139Z" fill="#FC63E3"/>
    <path d="M254.694 152.139H239.972V166.861H254.694V152.139Z" fill="#FC63E3"/>
    <path d="M272.361 152.139H257.639V166.861H272.361V152.139Z" fill="#FC63E3"/>
    <path d="M290.028 152.139H275.306V166.861H290.028V152.139Z" fill="#FC63E3"/>
    <path d="M307.694 152.139H292.972V166.861H307.694V152.139Z" fill="#FC63E3"/>
    <path d="M325.361 152.139H310.639V166.861H325.361V152.139Z" fill="#FC63E3"/>
    <path d="M343.028 152.139H328.306V166.861H343.028V152.139Z" fill="#FC63E3"/>
    <path d="M360.694 152.139H345.972V166.861H360.694V152.139Z" fill="#FC63E3"/>
    <path d="M25.0278 169.806H10.3056V184.528H25.0278V169.806Z" fill="#FC63E3"/>
    <path d="M42.6945 169.806H27.9722V184.528H42.6945V169.806Z" fill="#FC63E3"/>
    <path d="M60.3611 169.806H45.6389V184.528H60.3611V169.806Z" fill="#FC63E3"/>
    <path d="M78.0278 169.806H63.3056V184.528H78.0278V169.806Z" fill="#FC63E3"/>
    <path d="M95.6945 169.806H80.9722V184.528H95.6945V169.806Z" fill="#FC63E3"/>
    <path d="M113.361 169.806H98.6389V184.528H113.361V169.806Z" fill="#FC63E3"/>
    <path d="M131.028 169.806H116.306V184.528H131.028V169.806Z" fill="#FC63E3"/>
    <path d="M148.694 169.806H133.972V184.528H148.694V169.806Z" fill="#FC63E3"/>
    <path d="M166.361 169.806H151.639V184.528H166.361V169.806Z" fill="#FC63E3"/>
    <path d="M184.028 169.806H169.306V184.528H184.028V169.806Z" fill="#FC63E3"/>
    <path d="M201.694 169.806H186.972V184.528H201.694V169.806Z" fill="#FC63E3"/>
    <path d="M219.361 169.806H204.639V184.528H219.361V169.806Z" fill="#FC63E3"/>
    <path d="M237.028 169.806H222.306V184.528H237.028V169.806Z" fill="#FC63E3"/>
    <path d="M254.694 169.806H239.972V184.528H254.694V169.806Z" fill="#FC63E3"/>
    <path d="M272.361 169.806H257.639V184.528H272.361V169.806Z" fill="#FC63E3"/>
    <path d="M290.028 169.806H275.306V184.528H290.028V169.806Z" fill="#FC63E3"/>
    <path d="M307.694 169.806H292.972V184.528H307.694V169.806Z" fill="#FC63E3"/>
    <path d="M325.361 169.806H310.639V184.528H325.361V169.806Z" fill="#FC63E3"/>
    <path d="M343.028 169.806H328.306V184.528H343.028V169.806Z" fill="#FC63E3"/>
    <path d="M360.694 169.806H345.972V184.528H360.694V169.806Z" fill="#FC63E3"/>
    <path d="M25.0278 187.472H10.3056V202.194H25.0278V187.472Z" fill="#FC63E3"/>
    <path d="M42.6945 187.472H27.9722V202.194H42.6945V187.472Z" fill="#FC63E3"/>
    <path d="M60.3611 187.472H45.6389V202.194H60.3611V187.472Z" fill="#FC63E3"/>
    <path d="M78.0278 187.472H63.3056V202.194H78.0278V187.472Z" fill="#FC63E3"/>
    <path d="M95.6945 187.472H80.9722V202.194H95.6945V187.472Z" fill="#FC63E3"/>
    <path d="M113.361 187.472H98.6389V202.194H113.361V187.472Z" fill="#FC63E3"/>
    <path d="M131.028 187.472H116.306V202.194H131.028V187.472Z" fill="#FC63E3"/>
    <path d="M148.694 187.472H133.972V202.194H148.694V187.472Z" fill="#FC63E3"/>
    <path d="M166.361 187.472H151.639V202.194H166.361V187.472Z" fill="#FC63E3"/>
    <path d="M184.028 187.472H169.306V202.194H184.028V187.472Z" fill="#FC63E3"/>
    <path d="M201.694 187.472H186.972V202.194H201.694V187.472Z" fill="#FC63E3"/>
    <path d="M219.361 187.472H204.639V202.194H219.361V187.472Z" fill="#FC63E3"/>
    <path d="M237.028 187.472H222.306V202.194H237.028V187.472Z" fill="#FC63E3"/>
    <path d="M254.694 187.472H239.972V202.194H254.694V187.472Z" fill="#FC63E3"/>
    <path d="M272.361 187.472H257.639V202.194H272.361V187.472Z" fill="#FC63E3"/>
    <path d="M290.028 187.472H275.306V202.194H290.028V187.472Z" fill="#FC63E3"/>
    <path d="M307.694 187.472H292.972V202.194H307.694V187.472Z" fill="#FC63E3"/>
    <path d="M325.361 187.472H310.639V202.194H325.361V187.472Z" fill="#FC63E3"/>
    <path d="M343.028 187.472H328.306V202.194H343.028V187.472Z" fill="#FC63E3"/>
    <path d="M360.694 187.472H345.972V202.194H360.694V187.472Z" fill="#FC63E3"/>
    <path d="M25.0278 205.139H10.3056V219.861H25.0278V205.139Z" fill="#FC63E3"/>
    <path d="M42.6945 205.139H27.9722V219.861H42.6945V205.139Z" fill="#FC63E3"/>
    <path d="M60.3611 205.139H45.6389V219.861H60.3611V205.139Z" fill="#FC63E3"/>
    <path d="M78.0278 205.139H63.3056V219.861H78.0278V205.139Z" fill="#FC63E3"/>
    <path d="M95.6945 205.139H80.9722V219.861H95.6945V205.139Z" fill="#FC63E3"/>
    <path d="M113.361 205.139H98.6389V219.861H113.361V205.139Z" fill="#FC63E3"/>
    <path d="M131.028 205.139H116.306V219.861H131.028V205.139Z" fill="#FC63E3"/>
    <path d="M148.694 205.139H133.972V219.861H148.694V205.139Z" fill="#FC63E3"/>
    <path d="M166.361 205.139H151.639V219.861H166.361V205.139Z" fill="#FC63E3"/>
    <path d="M184.028 205.139H169.306V219.861H184.028V205.139Z" fill="#FC63E3"/>
    <path d="M201.694 205.139H186.972V219.861H201.694V205.139Z" fill="#FC63E3"/>
    <path d="M219.361 205.139H204.639V219.861H219.361V205.139Z" fill="#FC63E3"/>
    <path d="M237.028 205.139H222.306V219.861H237.028V205.139Z" fill="#FC63E3"/>
    <path d="M254.694 205.139H239.972V219.861H254.694V205.139Z" fill="#FC63E3"/>
    <path d="M272.361 205.139H257.639V219.861H272.361V205.139Z" fill="#FC63E3"/>
    <path d="M290.028 205.139H275.306V219.861H290.028V205.139Z" fill="#FC63E3"/>
    <path d="M307.694 205.139H292.972V219.861H307.694V205.139Z" fill="#FC63E3"/>
    <path d="M325.361 205.139H310.639V219.861H325.361V205.139Z" fill="#FC63E3"/>
    <path d="M343.028 205.139H328.306V219.861H343.028V205.139Z" fill="#FC63E3"/>
    <path d="M360.694 205.139H345.972V219.861H360.694V205.139Z" fill="#FC63E3"/>
    <path d="M25.0278 222.806H10.3056V237.528H25.0278V222.806Z" fill="#FC63E3"/>
    <path d="M42.6945 222.806H27.9722V237.528H42.6945V222.806Z" fill="#FC63E3"/>
    <path d="M60.3611 222.806H45.6389V237.528H60.3611V222.806Z" fill="#FC63E3"/>
    <path d="M78.0278 222.806H63.3056V237.528H78.0278V222.806Z" fill="#FC63E3"/>
    <path d="M95.6945 222.806H80.9722V237.528H95.6945V222.806Z" fill="#FC63E3"/>
    <path d="M113.361 222.806H98.6389V237.528H113.361V222.806Z" fill="#FC63E3"/>
    <path d="M131.028 222.806H116.306V237.528H131.028V222.806Z" fill="#FC63E3"/>
    <path d="M148.694 222.806H133.972V237.528H148.694V222.806Z" fill="#FC63E3"/>
    <path d="M166.361 222.806H151.639V237.528H166.361V222.806Z" fill="#FC63E3"/>
    <path d="M184.028 222.806H169.306V237.528H184.028V222.806Z" fill="#FC63E3"/>
    <path d="M201.694 222.806H186.972V237.528H201.694V222.806Z" fill="#FC63E3"/>
    <path d="M219.361 222.806H204.639V237.528H219.361V222.806Z" fill="#FC63E3"/>
    <path d="M237.028 222.806H222.306V237.528H237.028V222.806Z" fill="#FC63E3"/>
    <path d="M254.694 222.806H239.972V237.528H254.694V222.806Z" fill="#FC63E3"/>
    <path d="M272.361 222.806H257.639V237.528H272.361V222.806Z" fill="#FC63E3"/>
    <path d="M290.028 222.806H275.306V237.528H290.028V222.806Z" fill="#FC63E3"/>
    <path d="M307.694 222.806H292.972V237.528H307.694V222.806Z" fill="#FC63E3"/>
    <path d="M325.361 222.806H310.639V237.528H325.361V222.806Z" fill="#FC63E3"/>
    <path d="M343.028 222.806H328.306V237.528H343.028V222.806Z" fill="#FC63E3"/>
    <path d="M360.694 222.806H345.972V237.528H360.694V222.806Z" fill="#FC63E3"/>
    <path d="M42.6945 240.472H27.9722V255.194H42.6945V240.472Z" fill="#FC63E3"/>
    <path d="M60.3611 240.472H45.6389V255.194H60.3611V240.472Z" fill="#FC63E3"/>
    <path d="M78.0278 240.472H63.3056V255.194H78.0278V240.472Z" fill="#FC63E3"/>
    <path d="M95.6945 240.472H80.9722V255.194H95.6945V240.472Z" fill="#FC63E3"/>
    <path d="M113.361 240.472H98.6389V255.194H113.361V240.472Z" fill="#FC63E3"/>
    <path d="M131.028 240.472H116.306V255.194H131.028V240.472Z" fill="#FC63E3"/>
    <path d="M148.694 240.472H133.972V255.194H148.694V240.472Z" fill="#FC63E3"/>
    <path d="M166.361 240.472H151.639V255.194H166.361V240.472Z" fill="#FC63E3"/>
    <path d="M184.028 240.472H169.306V255.194H184.028V240.472Z" fill="#FC63E3"/>
    <path d="M201.694 240.472H186.972V255.194H201.694V240.472Z" fill="#FC63E3"/>
    <path d="M219.361 240.472H204.639V255.194H219.361V240.472Z" fill="#FC63E3"/>
    <path d="M237.028 240.472H222.306V255.194H237.028V240.472Z" fill="#FC63E3"/>
    <path d="M254.694 240.472H239.972V255.194H254.694V240.472Z" fill="#FC63E3"/>
    <path d="M272.361 240.472H257.639V255.194H272.361V240.472Z" fill="#FC63E3"/>
    <path d="M290.028 240.472H275.306V255.194H290.028V240.472Z" fill="#FC63E3"/>
    <path d="M307.694 240.472H292.972V255.194H307.694V240.472Z" fill="#FC63E3"/>
    <path d="M325.361 240.472H310.639V255.194H325.361V240.472Z" fill="#FC63E3"/>
    <path d="M343.028 240.472H328.306V255.194H343.028V240.472Z" fill="#FC63E3"/>
    <path d="M42.6945 258.139H27.9722V272.861H42.6945V258.139Z" fill="#FC63E3"/>
    <path d="M60.3611 258.139H45.6389V272.861H60.3611V258.139Z" fill="#FC63E3"/>
    <path d="M78.0278 258.139H63.3056V272.861H78.0278V258.139Z" fill="#FC63E3"/>
    <path d="M95.6945 258.139H80.9722V272.861H95.6945V258.139Z" fill="#FC63E3"/>
    <path d="M113.361 258.139H98.6389V272.861H113.361V258.139Z" fill="#FC63E3"/>
    <path d="M131.028 258.139H116.306V272.861H131.028V258.139Z" fill="#FC63E3"/>
    <path d="M148.694 258.139H133.972V272.861H148.694V258.139Z" fill="#FC63E3"/>
    <path d="M166.361 258.139H151.639V272.861H166.361V258.139Z" fill="#FC63E3"/>
    <path d="M184.028 258.139H169.306V272.861H184.028V258.139Z" fill="#FC63E3"/>
    <path d="M201.694 258.139H186.972V272.861H201.694V258.139Z" fill="#FC63E3"/>
    <path d="M219.361 258.139H204.639V272.861H219.361V258.139Z" fill="#FC63E3"/>
    <path d="M237.028 258.139H222.306V272.861H237.028V258.139Z" fill="#FC63E3"/>
    <path d="M254.694 258.139H239.972V272.861H254.694V258.139Z" fill="#FC63E3"/>
    <path d="M272.361 258.139H257.639V272.861H272.361V258.139Z" fill="#FC63E3"/>
    <path d="M290.028 258.139H275.306V272.861H290.028V258.139Z" fill="#FC63E3"/>
    <path d="M307.694 258.139H292.972V272.861H307.694V258.139Z" fill="#FC63E3"/>
    <path d="M325.361 258.139H310.639V272.861H325.361V258.139Z" fill="#FC63E3"/>
    <path d="M343.028 258.139H328.306V272.861H343.028V258.139Z" fill="#FC63E3"/>
    <path d="M60.3611 275.806H45.6389V290.528H60.3611V275.806Z" fill="#FC63E3"/>
    <path d="M78.0278 275.806H63.3056V290.528H78.0278V275.806Z" fill="#FC63E3"/>
    <path d="M95.6945 275.806H80.9722V290.528H95.6945V275.806Z" fill="#FC63E3"/>
    <path d="M113.361 275.806H98.6389V290.528H113.361V275.806Z" fill="#FC63E3"/>
    <path d="M131.028 275.806H116.306V290.528H131.028V275.806Z" fill="#FC63E3"/>
    <path d="M148.694 275.806H133.972V290.528H148.694V275.806Z" fill="#FC63E3"/>
    <path d="M166.361 275.806H151.639V290.528H166.361V275.806Z" fill="#FC63E3"/>
    <path d="M184.028 275.806H169.306V290.528H184.028V275.806Z" fill="#FC63E3"/>
    <path d="M201.694 275.806H186.972V290.528H201.694V275.806Z" fill="#FC63E3"/>
    <path d="M219.361 275.806H204.639V290.528H219.361V275.806Z" fill="#FC63E3"/>
    <path d="M237.028 275.806H222.306V290.528H237.028V275.806Z" fill="#FC63E3"/>
    <path d="M254.694 275.806H239.972V290.528H254.694V275.806Z" fill="#FC63E3"/>
    <path d="M272.361 275.806H257.639V290.528H272.361V275.806Z" fill="#FC63E3"/>
    <path d="M290.028 275.806H275.306V290.528H290.028V275.806Z" fill="#FC63E3"/>
    <path d="M307.694 275.806H292.972V290.528H307.694V275.806Z" fill="#FC63E3"/>
    <path d="M325.361 275.806H310.639V290.528H325.361V275.806Z" fill="#FC63E3"/>
    <path d="M60.3611 293.472H45.6389V308.194H60.3611V293.472Z" fill="#FC63E3"/>
    <path d="M78.0278 293.472H63.3056V308.194H78.0278V293.472Z" fill="#FC63E3"/>
    <path d="M95.6945 293.472H80.9722V308.194H95.6945V293.472Z" fill="#FC63E3"/>
    <path d="M113.361 293.472H98.6389V308.194H113.361V293.472Z" fill="#FC63E3"/>
    <path d="M131.028 293.472H116.306V308.194H131.028V293.472Z" fill="#FC63E3"/>
    <path d="M148.694 293.472H133.972V308.194H148.694V293.472Z" fill="#FC63E3"/>
    <path d="M166.361 293.472H151.639V308.194H166.361V293.472Z" fill="#FC63E3"/>
    <path d="M184.028 293.472H169.306V308.194H184.028V293.472Z" fill="#FC63E3"/>
    <path d="M201.694 293.472H186.972V308.194H201.694V293.472Z" fill="#FC63E3"/>
    <path d="M219.361 293.472H204.639V308.194H219.361V293.472Z" fill="#FC63E3"/>
    <path d="M237.028 293.472H222.306V308.194H237.028V293.472Z" fill="#FC63E3"/>
    <path d="M254.694 293.472H239.972V308.194H254.694V293.472Z" fill="#FC63E3"/>
    <path d="M272.361 293.472H257.639V308.194H272.361V293.472Z" fill="#FC63E3"/>
    <path d="M290.028 293.472H275.306V308.194H290.028V293.472Z" fill="#FC63E3"/>
    <path d="M307.694 293.472H292.972V308.194H307.694V293.472Z" fill="#FC63E3"/>
    <path d="M325.361 293.472H310.639V308.194H325.361V293.472Z" fill="#FC63E3"/>
    <path d="M78.0278 311.139H63.3056V325.861H78.0278V311.139Z" fill="#FC63E3"/>
    <path d="M95.6945 311.139H80.9722V325.861H95.6945V311.139Z" fill="#FC63E3"/>
    <path d="M113.361 311.139H98.6389V325.861H113.361V311.139Z" fill="#FC63E3"/>
    <path d="M131.028 311.139H116.306V325.861H131.028V311.139Z" fill="#FC63E3"/>
    <path d="M148.694 311.139H133.972V325.861H148.694V311.139Z" fill="#FC63E3"/>
    <path d="M166.361 311.139H151.639V325.861H166.361V311.139Z" fill="#FC63E3"/>
    <path d="M184.028 311.139H169.306V325.861H184.028V311.139Z" fill="#FC63E3"/>
    <path d="M201.694 311.139H186.972V325.861H201.694V311.139Z" fill="#FC63E3"/>
    <path d="M219.361 311.139H204.639V325.861H219.361V311.139Z" fill="#FC63E3"/>
    <path d="M237.028 311.139H222.306V325.861H237.028V311.139Z" fill="#FC63E3"/>
    <path d="M254.694 311.139H239.972V325.861H254.694V311.139Z" fill="#FC63E3"/>
    <path d="M272.361 311.139H257.639V325.861H272.361V311.139Z" fill="#FC63E3"/>
    <path d="M290.028 311.139H275.306V325.861H290.028V311.139Z" fill="#FC63E3"/>
    <path d="M307.694 311.139H292.972V325.861H307.694V311.139Z" fill="#FC63E3"/>
    <path d="M113.361 328.806H98.6389V343.528H113.361V328.806Z" fill="#FC63E3"/>
    <path d="M131.028 328.806H116.306V343.528H131.028V328.806Z" fill="#FC63E3"/>
    <path d="M148.694 328.806H133.972V343.528H148.694V328.806Z" fill="#FC63E3"/>
    <path d="M166.361 328.806H151.639V343.528H166.361V328.806Z" fill="#FC63E3"/>
    <path d="M184.028 328.806H169.306V343.528H184.028V328.806Z" fill="#FC63E3"/>
    <path d="M201.694 328.806H186.972V343.528H201.694V328.806Z" fill="#FC63E3"/>
    <path d="M219.361 328.806H204.639V343.528H219.361V328.806Z" fill="#FC63E3"/>
    <path d="M237.028 328.806H222.306V343.528H237.028V328.806Z" fill="#FC63E3"/>
    <path d="M254.694 328.806H239.972V343.528H254.694V328.806Z" fill="#FC63E3"/>
    <path d="M272.361 328.806H257.639V343.528H272.361V328.806Z" fill="#FC63E3"/>
    <path d="M148.694 346.472H133.972V361.194H148.694V346.472Z" fill="#FC63E3"/>
    <path d="M166.361 346.472H151.639V361.194H166.361V346.472Z" fill="#FC63E3"/>
    <path d="M184.028 346.472H169.306V361.194H184.028V346.472Z" fill="#FC63E3"/>
    <path d="M201.694 346.472H186.972V361.194H201.694V346.472Z" fill="#FC63E3"/>
    <path d="M219.361 346.472H204.639V361.194H219.361V346.472Z" fill="#FC63E3"/>
    <path d="M237.028 347.472H222.306V362.194H237.028V347.472Z" fill="#FC63E3"/>
</svg>
